<svg width="1440" height="831" viewBox="0 0 1440 831" fill="none" xmlns="http://www.w3.org/2000/svg">
<g clip-path="url(#clip0_400_488)">
<rect width="1440" height="831" fill="white"/>
<g opacity="0.6">
<circle cx="1243" cy="201" r="120" fill="#FFE91F" fill-opacity="0.4"/>
<path d="M1476.19 42.7377C1473.72 56.8573 1466.38 107.724 1431.81 101.241C1397.24 94.7576 1355.84 141.346 1358.31 127.226C1360.78 113.106 1392.24 58.939 1426.8 65.422C1461.37 71.9051 1478.66 28.6181 1476.19 42.7377Z" fill="#FFE91F" fill-opacity="0.4"/>
<path d="M1521.71 239.56C1509.94 247.643 1468.64 277.975 1448.43 246.407C1428.21 214.838 1365.51 215.561 1377.28 207.479C1389.05 199.396 1449.99 185.539 1470.2 217.108C1490.42 248.677 1533.48 231.478 1521.71 239.56Z" fill="#FFE91F" fill-opacity="0.4"/>
<path d="M1351.02 295.263C1365.36 294.19 1416.64 289.083 1418.67 318.089C1420.69 347.094 1476.02 370.111 1461.68 371.183C1447.34 372.256 1387.03 358.816 1385.01 329.811C1382.98 300.806 1336.68 296.335 1351.02 295.263Z" fill="#FFE91F" fill-opacity="0.4"/>
<path d="M1261.43 339.352C1276.43 346.27 1330.77 369.619 1316.63 402.483C1302.49 435.347 1345.22 491.739 1330.23 484.821C1315.23 477.904 1262.16 429.177 1276.3 396.313C1290.44 363.449 1246.43 332.435 1261.43 339.352Z" fill="#FFE91F" fill-opacity="0.4"/>
<path d="M1174.66 332.492C1179.95 345.278 1200.41 390.423 1166.21 405.613C1132 420.803 1119.88 482.608 1114.58 469.822C1109.29 457.035 1108.54 395.016 1142.74 379.826C1176.95 364.636 1169.36 319.706 1174.66 332.492Z" fill="#FFE91F" fill-opacity="0.4"/>
<path d="M1101.53 257.724C1093.13 269.932 1064.25 314.546 1036.98 294.446C1009.72 274.346 953.037 301.128 961.43 288.92C969.824 276.711 1021.19 238.799 1048.45 258.899C1075.72 278.999 1109.92 245.515 1101.53 257.724Z" fill="#FFE91F" fill-opacity="0.4"/>
<path d="M1355.8 -48.7993C1360 -37.4776 1376.55 2.49171 1342.51 16.0473C1308.47 29.603 1292.44 84.4263 1288.23 73.1046C1284.03 61.7829 1287.66 6.80274 1321.71 -6.75289C1355.75 -20.3085 1351.59 -60.121 1355.8 -48.7993Z" fill="#FFE91F" fill-opacity="0.4"/>
<path d="M1136.34 -50.4571C1149.26 -47.7142 1195.84 -39.4695 1188.65 -3.18806C1181.46 33.0934 1222.91 77.1081 1209.99 74.3652C1197.08 71.6223 1148.3 37.987 1155.49 1.70556C1162.68 -34.5759 1123.42 -53.2 1136.34 -50.4571Z" fill="#FFE91F" fill-opacity="0.4"/>
<path d="M969.742 80.3024C985.101 76.6475 1039.73 61.7747 1048.78 102.579C1057.84 143.384 1123.52 167.765 1108.16 171.42C1092.8 175.075 1023.97 165.008 1014.91 124.203C1005.85 83.3988 954.384 83.9572 969.742 80.3024Z" fill="#FFE91F" fill-opacity="0.4"/>
</g>
<g filter="url(#filter0_df_400_488)">
<path d="M14.0668 353.49C15.0081 173.175 241.908 28.1802 520.861 29.6365C799.814 31.0929 1458.56 376.61 1457.62 556.925C1456.68 737.241 796.406 684.074 517.452 682.618C238.499 681.162 13.1255 533.806 14.0668 353.49Z" fill="url(#paint0_linear_400_488)" fill-opacity="0.5"/>
</g>
</g>
<defs>
<filter id="filter0_df_400_488" x="-185.936" y="-170.374" width="1843.56" height="1061.41" filterUnits="userSpaceOnUse" color-interpolation-filters="sRGB">
<feFlood flood-opacity="0" result="BackgroundImageFix"/>
<feColorMatrix in="SourceAlpha" type="matrix" values="0 0 0 0 0 0 0 0 0 0 0 0 0 0 0 0 0 0 127 0" result="hardAlpha"/>
<feOffset dy="4"/>
<feGaussianBlur stdDeviation="2"/>
<feComposite in2="hardAlpha" operator="out"/>
<feColorMatrix type="matrix" values="0 0 0 0 0 0 0 0 0 0 0 0 0 0 0 0 0 0 0.25 0"/>
<feBlend mode="normal" in2="BackgroundImageFix" result="effect1_dropShadow_400_488"/>
<feBlend mode="normal" in="SourceGraphic" in2="effect1_dropShadow_400_488" result="shape"/>
<feGaussianBlur stdDeviation="100" result="effect2_foregroundBlur_400_488"/>
</filter>
<linearGradient id="paint0_linear_400_488" x1="14.0504" y1="356.631" x2="1458.63" y2="364.172" gradientUnits="userSpaceOnUse">
<stop stop-color="#FCEEDE"/>
<stop offset="0.706731" stop-color="#FCF3E8"/>
<stop offset="0.990385" stop-color="white" stop-opacity="0.62"/>
</linearGradient>
<clipPath id="clip0_400_488">
<rect width="1440" height="831" fill="white"/>
</clipPath>
</defs>
</svg>
