<svg width="140" height="26" viewBox="0 0 140 26" fill="none" xmlns="http://www.w3.org/2000/svg">
<g clip-path="url(#clip0_451_485)">
<mask id="mask0_451_485" style="mask-type:luminance" maskUnits="userSpaceOnUse" x="0" y="0" width="140" height="26">
<path d="M140 0H0V26H140V0Z" fill="white"/>
</mask>
<g mask="url(#mask0_451_485)">
<path fill-rule="evenodd" clip-rule="evenodd" d="M36.5442 7.7941C36.1743 8.18023 35.5222 8.98297 35.0416 9.587L37.4391 11.779C37.9567 11.127 38.5804 10.3606 38.8553 10.0734C39.3539 9.55319 40.3986 8.82058 41.1602 8.82058C42.4241 8.82058 43.1787 9.61497 43.1787 10.9462C43.1787 11.2426 43.089 12.3054 41.9296 13.5657C40.4714 15.1507 38.6191 17.1724 37.4341 18.4652C36.2496 17.1724 34.3969 15.1507 32.9391 13.5657C31.7797 12.3054 31.69 11.2426 31.69 10.9462C31.69 9.61497 32.4442 8.82058 33.7081 8.82058C33.8538 8.82058 34.02 8.85231 34.1977 8.90699L36.3858 6.32012C35.4724 5.81126 34.5726 5.55078 33.7081 5.55078C30.6713 5.55078 28.4668 7.81998 28.4668 10.9462C28.4668 12.5667 29.2378 14.3346 30.5824 15.7965C32.9132 18.3303 36.2533 21.9804 36.2533 21.9804L37.4341 23.2703L38.615 21.9804C38.615 21.9804 41.9547 18.3303 44.2859 15.7961C45.6305 14.3346 46.4019 12.5667 46.4019 10.9462C46.4019 7.81998 44.1974 5.55078 41.1602 5.55078C38.7639 5.55078 36.7647 7.56451 36.5442 7.7941Z" fill="#F16577"/>
<path fill-rule="evenodd" clip-rule="evenodd" d="M7.2422 9.13449C6.14777 9.13449 5.24383 9.50727 4.53121 10.2519C3.81859 10.9962 3.46187 11.9321 3.46187 13.0605C3.46187 14.231 3.82682 15.1915 4.55672 15.9404C5.28621 16.6893 6.2029 17.0633 7.30598 17.0633C8.38354 17.0633 9.27226 16.6976 9.97253 15.9659C10.6724 15.2345 11.0229 14.2744 11.0229 13.0864C11.0229 11.915 10.6707 10.9645 9.96636 10.2323C9.26197 9.50101 8.35351 9.13449 7.2422 9.13449ZM10.8444 6.20323H14.3062V18.2392C14.3062 20.6153 13.8356 22.3623 12.8938 23.4819C11.629 24.9967 9.72443 25.7544 7.17843 25.7544C5.82108 25.7544 4.67974 25.5824 3.75482 25.238C2.8299 24.8941 2.04939 24.3877 1.41289 23.7206C0.77598 23.0536 0.30529 22.2416 0 21.2861H3.83094C4.17038 21.6823 4.60733 21.9812 5.1422 22.1845C5.67708 22.3861 6.30864 22.4871 7.03854 22.4871C7.97169 22.4871 8.72298 22.3414 9.29159 22.0488C9.8598 21.7553 10.261 21.3767 10.4942 20.9125C10.7279 20.4471 10.8444 19.6468 10.8444 18.5097C10.2334 19.1296 9.59277 19.5755 8.92253 19.8464C8.25188 20.1181 7.49236 20.2534 6.64438 20.2534C4.78548 20.2534 3.21583 19.5734 1.9346 18.2125C0.65337 16.8525 0.0123433 15.131 0.0123433 13.0471C0.0123433 10.8176 0.691634 9.02679 2.04939 7.67554C3.27919 6.45286 4.74722 5.84131 6.45306 5.84131C7.25043 5.84131 8.00378 5.99034 8.71228 6.28714C9.42079 6.58394 10.1313 7.07318 10.8444 7.75235" fill="#223761"/>
<path fill-rule="evenodd" clip-rule="evenodd" d="M20.3047 20.2533H23.7797V6.20278H20.3047V20.2533ZM22.0422 0.41748C22.6512 0.41748 23.1737 0.641228 23.6094 1.08914C24.0451 1.53664 24.2636 2.07931 24.2636 2.71632C24.2636 3.34457 24.0472 3.88056 23.616 4.3243C23.1844 4.7672 22.6684 4.98886 22.0677 4.98886C21.4497 4.98886 20.9231 4.76303 20.4874 4.31094C20.0517 3.85885 19.834 3.30992 19.834 2.66456C19.834 2.04466 20.0492 1.51535 20.4808 1.0762C20.9128 0.637054 21.4329 0.41748 22.0422 0.41748Z" fill="#223761"/>
<path fill-rule="evenodd" clip-rule="evenodd" d="M51.0535 20.2533H54.5282V6.20278H51.0535V20.2533ZM52.7906 0.41748C53.3996 0.41748 53.9225 0.641228 54.3578 1.08914C54.7935 1.53664 55.0116 2.07931 55.0116 2.71632C55.0116 3.34457 54.796 3.88056 54.3644 4.3243C53.9328 4.7672 53.4169 4.98886 52.8161 4.98886C52.1982 4.98886 51.6715 4.76303 51.2358 4.31094C50.8001 3.85885 50.582 3.30992 50.582 2.66456C50.582 2.04466 50.798 1.51535 51.2296 1.0762C51.6608 0.637054 52.1813 0.41748 52.7906 0.41748Z" fill="#223761"/>
<path fill-rule="evenodd" clip-rule="evenodd" d="M60.5508 6.20281H64.0258V7.64256C64.8137 6.96881 65.5276 6.50003 66.1673 6.23662C66.8067 5.97322 67.4613 5.84131 68.1312 5.84131C69.5037 5.84131 70.6685 6.32763 71.6264 7.30068C72.4311 8.12679 72.8335 9.34989 72.8335 10.9683V20.2534H69.3972V14.1007C69.3972 12.4235 69.3231 11.3102 69.175 10.7596C69.0269 10.2089 68.7685 9.79029 68.3998 9.50184C68.0316 9.2138 67.5765 9.06979 67.0355 9.06979C66.3323 9.06979 65.7292 9.30815 65.226 9.7857C64.722 10.2632 64.3726 10.9232 64.178 11.766C64.0764 12.2043 64.0258 13.1548 64.0258 14.6163V20.2534H60.5508" fill="#223761"/>
<path fill-rule="evenodd" clip-rule="evenodd" d="M86.2153 9.13449C85.1209 9.13449 84.2174 9.50727 83.5044 10.2519C82.7913 10.9962 82.435 11.9321 82.435 13.0605C82.435 14.231 82.7995 15.1915 83.5294 15.9404C84.2593 16.6893 85.1756 17.0633 86.2787 17.0633C87.3567 17.0633 88.2458 16.6976 88.9457 15.9659C89.6455 15.2345 89.9957 14.2744 89.9957 13.0864C89.9957 11.915 89.6435 10.9645 88.9391 10.2323C88.2351 9.50101 87.3267 9.13449 86.2153 9.13449ZM89.8175 6.20323H93.2794V18.2392C93.2794 20.6153 92.8087 22.3623 91.8665 23.4819C90.6021 24.9967 88.6976 25.7544 86.1516 25.7544C84.7938 25.7544 83.6529 25.5824 82.7276 25.238C81.803 24.8941 81.0225 24.3877 80.3856 23.7206C79.7491 23.0536 79.2784 22.2416 78.9727 21.2861H82.8041C83.1435 21.6823 83.5804 21.9812 84.1152 22.1845C84.6497 22.3861 85.2818 22.4871 86.0117 22.4871C86.9448 22.4871 87.6965 22.3414 88.2647 22.0488C88.8329 21.7553 89.2341 21.3767 89.4674 20.9125C89.7011 20.4471 89.8175 19.6468 89.8175 18.5097C89.2069 19.1296 88.5659 19.5755 87.8957 19.8464C87.225 20.1181 86.4655 20.2534 85.6171 20.2534C83.7586 20.2534 82.189 19.5734 80.9077 18.2125C79.6261 16.8525 78.9855 15.131 78.9855 13.0471C78.9855 10.8176 79.6644 9.02679 81.0225 7.67554C82.2523 6.45286 83.7208 5.84131 85.4262 5.84131C86.224 5.84131 86.9773 5.99034 87.6854 6.28714C88.3939 6.58394 89.1045 7.07318 89.8175 7.75235" fill="#223761"/>
<path fill-rule="evenodd" clip-rule="evenodd" d="M101.557 16.5728C102.109 16.5728 102.58 16.7686 102.97 17.1602C103.361 17.5521 103.556 18.0276 103.556 18.5874C103.556 19.1468 103.361 19.6251 102.97 20.0205C102.58 20.4166 102.109 20.6145 101.557 20.6145C101.005 20.6145 100.535 20.4166 100.144 20.0205C99.7536 19.6251 99.5586 19.1468 99.5586 18.5874C99.5586 18.0276 99.7536 17.5521 100.144 17.1602C100.535 16.7686 101.005 16.5728 101.557 16.5728Z" fill="#223761"/>
<path fill-rule="evenodd" clip-rule="evenodd" d="M119.34 8.16604L117.189 10.348C116.315 9.47012 115.522 9.03097 114.809 9.03097C114.419 9.03097 114.113 9.11488 113.893 9.2831C113.672 9.45091 113.562 9.65963 113.562 9.90926C113.562 10.0988 113.631 10.2733 113.772 10.4323C113.912 10.5914 114.257 10.8089 114.809 11.0844L116.082 11.7301C117.423 12.4014 118.343 13.086 118.844 13.7835C119.345 14.4807 119.595 15.2984 119.595 16.2368C119.595 17.4854 119.143 18.5269 118.239 19.3618C117.335 20.1975 116.125 20.6149 114.605 20.6149C112.586 20.6149 110.973 19.8139 109.768 18.2121L111.907 15.8494C112.315 16.332 112.792 16.7211 113.339 17.0183C113.886 17.3155 114.372 17.4633 114.796 17.4633C115.254 17.4633 115.624 17.3518 115.904 17.1285C116.184 16.9043 116.324 16.6455 116.324 16.3529C116.324 15.8106 115.819 15.2817 114.809 14.7649L113.638 14.1709C111.398 13.0259 110.278 11.5924 110.278 9.87044C110.278 8.75963 110.7 7.81038 111.545 7.02267C112.388 6.23538 113.469 5.84131 114.784 5.84131C115.683 5.84131 116.529 6.04127 117.323 6.44159C118.116 6.84233 118.788 7.41673 119.34 8.16604Z" fill="#223761"/>
<path fill-rule="evenodd" clip-rule="evenodd" d="M132.874 9.13449C131.779 9.13449 130.875 9.50727 130.163 10.2519C129.45 10.9962 129.093 11.9321 129.093 13.0605C129.093 14.231 129.458 15.1915 130.188 15.9404C130.918 16.6893 131.835 17.0633 132.938 17.0633C134.015 17.0633 134.904 16.6976 135.604 15.9659C136.304 15.2345 136.654 14.2744 136.654 13.0864C136.654 11.915 136.302 10.9645 135.598 10.2323C134.894 9.50101 133.986 9.13449 132.874 9.13449ZM136.476 6.20323H139.938V18.2392C139.938 20.6153 139.467 22.3623 138.525 23.4819C137.261 24.9967 135.356 25.7544 132.81 25.7544C131.453 25.7544 130.311 25.5824 129.386 25.238C128.461 24.8941 127.681 24.3877 127.044 23.7206C126.408 23.0536 125.937 22.2416 125.631 21.2861H129.463C129.802 21.6823 130.239 21.9812 130.774 22.1845C131.308 22.3861 131.94 22.4871 132.671 22.4871C133.603 22.4871 134.355 22.3414 134.923 22.0488C135.491 21.7553 135.893 21.3767 136.125 20.9125C136.36 20.4471 136.476 19.6468 136.476 18.5097C135.865 19.1296 135.224 19.5755 134.554 19.8464C133.884 20.1181 133.124 20.2534 132.276 20.2534C130.417 20.2534 128.848 19.5734 127.566 18.2125C126.285 16.8525 125.644 15.131 125.644 13.0471C125.644 10.8176 126.323 9.02679 127.681 7.67554C128.911 6.45286 130.379 5.84131 132.085 5.84131C132.882 5.84131 133.636 5.99034 134.344 6.28714C135.053 6.58394 135.763 7.07318 136.476 7.75235" fill="#223761"/>
</g>
</g>
<defs>
<clipPath id="clip0_451_485">
<rect width="140" height="26" fill="white"/>
</clipPath>
</defs>
</svg>
